<svg xmlns="http://www.w3.org/2000/svg" version="1.1" xmlns:xlink="http://www.w3.org/1999/xlink" width="1000" height="1000"><style>
    #light-icon {
      display: inline;
    }
    #dark-icon {
      display: none;
    }

    @media (prefers-color-scheme: dark) {
      #light-icon {
        display: none;
      }
      #dark-icon {
        display: inline;
      }
    }
  </style><g id="light-icon"><svg xmlns="http://www.w3.org/2000/svg" version="1.1" xmlns:xlink="http://www.w3.org/1999/xlink" width="1000" height="1000"><g><g transform="matrix(23.25581395348837,0,0,23.25581395348837,11.627906976744214,0)"><svg xmlns="http://www.w3.org/2000/svg" version="1.1" xmlns:xlink="http://www.w3.org/1999/xlink" width="42" height="43"><svg width="42" height="43" viewBox="0 0 42 43" fill="none" xmlns="http://www.w3.org/2000/svg">
<path d="M38.7277 11.2724L17.7897 32.3157C17.2036 32.9047 17.6188 33.9118 18.4475 33.9118H29.4549C29.9687 33.9118 30.3852 33.4932 30.3852 32.9768V26.8656C30.3852 26.6177 30.4832 26.3797 30.6576 26.2045L37.4119 19.4162C37.998 18.8271 39.0001 19.2444 39.0001 20.0773V27.1534C39.0001 27.6164 38.8171 28.0606 38.4911 28.388L32.9949 33.9118L30.3852 36.5347L25.0596 41.887C24.7363 42.2119 24.2978 42.3945 23.8406 42.3945H4.60166C4.08791 42.3945 3.67139 41.9758 3.67139 41.4595V34.2117C3.67139 33.9638 3.76942 33.7258 3.9438 33.5505L37.0543 0.273782C37.2287 0.0985292 37.4655 0 37.7122 0H38.0698C38.5835 0 39.0001 0.418614 39.0001 0.93495V10.6113C39.0001 10.8592 38.902 11.0972 38.7277 11.2724Z" fill="#401CD8"></path>
<path d="M29.212 1.59612L5.25952 25.669C4.67345 26.258 3.67139 25.8408 3.67139 25.0078V0.93495C3.67139 0.418614 4.08791 0 4.60166 0H28.5541C29.3829 0 29.7981 1.0071 29.212 1.59612Z" fill="#962DFF"></path>
</svg></svg></g></g></svg></g><g id="dark-icon"><svg xmlns="http://www.w3.org/2000/svg" version="1.1" xmlns:xlink="http://www.w3.org/1999/xlink" width="1000" height="1000"><g clip-path="url(#SvgjsClipPath1022)"><rect width="1000" height="1000" fill="#ffffff"></rect><g transform="matrix(18.6046511627907,0,0,18.6046511627907,109.30232558139534,100)"><svg xmlns="http://www.w3.org/2000/svg" version="1.1" xmlns:xlink="http://www.w3.org/1999/xlink" width="42" height="43"><svg width="42" height="43" viewBox="0 0 42 43" fill="none" xmlns="http://www.w3.org/2000/svg">
<path d="M38.7277 11.2724L17.7897 32.3157C17.2036 32.9047 17.6188 33.9118 18.4475 33.9118H29.4549C29.9687 33.9118 30.3852 33.4932 30.3852 32.9768V26.8656C30.3852 26.6177 30.4832 26.3797 30.6576 26.2045L37.4119 19.4162C37.998 18.8271 39.0001 19.2444 39.0001 20.0773V27.1534C39.0001 27.6164 38.8171 28.0606 38.4911 28.388L32.9949 33.9118L30.3852 36.5347L25.0596 41.887C24.7363 42.2119 24.2978 42.3945 23.8406 42.3945H4.60166C4.08791 42.3945 3.67139 41.9758 3.67139 41.4595V34.2117C3.67139 33.9638 3.76942 33.7258 3.9438 33.5505L37.0543 0.273782C37.2287 0.0985292 37.4655 0 37.7122 0H38.0698C38.5835 0 39.0001 0.418614 39.0001 0.93495V10.6113C39.0001 10.8592 38.902 11.0972 38.7277 11.2724Z" fill="#401CD8"></path>
<path d="M29.212 1.59612L5.25952 25.669C4.67345 26.258 3.67139 25.8408 3.67139 25.0078V0.93495C3.67139 0.418614 4.08791 0 4.60166 0H28.5541C29.3829 0 29.7981 1.0071 29.212 1.59612Z" fill="#962DFF"></path>
</svg></svg></g></g><defs><clipPath id="SvgjsClipPath1022"><rect width="1000" height="1000" x="0" y="0" rx="250" ry="250"></rect></clipPath></defs></svg></g></svg>